# xmcd
#
# Track frame offsets:
#	150
#	15105
#	28172
#	40163
#	52763
#	65989
#	78857
#	90187
#	100957
#	112766
#	125690
#	138275
#	150247
#	162162
#	175891
#	188857
#	202567
#	215791
#	228057
#	240864
#
# Disc length: 3379 seconds
#
# Revision: 1
# Processed by: cddbd v1.5.2PL0 Copyright (c) Steve Scherf et al.
# Submitted via: audiograbber 1.83.01
#
DISCID=e60d3114
DTITLE=The Greatest Country Music Recordings Of All Time - Record 41 and 42
DYEAR=1900
DGENRE=
TTITLE0=Red Foley - Old Shep
TTITLE1=Red Foley - Smoke On The Water
TTITLE2=Red Foley - Tennessee Saturday Night
TTITLE3=Red Foley - Chattanooga Shoe Shine Boy
TTITLE4=Red Foley - One By One (with Red Foley)
TTITLE5=Kitty Wells - How Far Is Heaven
TTITLE6=Kitty Wells - It Wasn't God Who Made Honky Tonk Angels
TTITLE7=Kitty Wells - The Things I Might Have Been
TTITLE8=Kitty Wells - I Gave My Wedding Dress Away
TTITLE9=Kitty Wells - Makin' Believe
TTITLE10=Jack Guthrie - Oklahoma Hills
TTITLE11=Merle Travis - No Vacancy
TTITLE12=Cowboy Copas - Signed, Sealed And Delivered
TTITLE13=Moon Mullican - I'll Sail My Ship Alone
TTITLE14=Delmore Brothers - Blues Stay Away From Me
TTITLE15=Wayne Raney - Why Don't You Haul Off And Love Me
TTITLE16=George Morgan - Candy Kisses
TTITLE17=Leon Payne - I Love You Because
TTITLE18=Carl Smith - Let's Live A Little
TTITLE19=Porter Wagoner - A Satisfied Mind
EXTD=
EXTT0=
EXTT1=
EXTT2=
EXTT3=
EXTT4=
EXTT5=
EXTT6=
EXTT7=
EXTT8=
EXTT9=
EXTT10=
EXTT11=
EXTT12=
EXTT13=
EXTT14=
EXTT15=
EXTT16=
EXTT17=
EXTT18=
EXTT19=
PLAYORDER=
